# Rhino

mtllib building01.mtl
g 2D_Floorplan
usemtl diffuse_0
v -0.035088960081338882 26894.123046875 -1495.197998046875
v -54769.23828125 26849.751953125 -1495.197998046875
v 26.748744964599609 -7001.12060546875 -1495.197998046875
v -54734.046875 -6993.025390625 -1495.197998046875
v -0.035088960081338882 26894.123046875 9304.8017578125
v 26.748744964599609 -7001.12060546875 9304.8017578125
v -54769.23828125 26849.751953125 9304.8017578125
v -54734.046875 -6993.025390625 9304.8017578125
v -17920.66015625 14661.2236328125 9304.8017578125
v -36820.66015625 14661.22265625 9304.8017578125
v -17920.66015625 7661.2236328125 9304.8017578125
v -36820.66015625 7661.22265625 9304.8017578125
v -36820.66015625 14661.22265625 9304.8017578125
v -17920.66015625 14661.2236328125 9304.8017578125
v -36820.66015625 14661.22265625 13804.8017578125
v -17920.66015625 14661.2236328125 13804.8017578125
v -17920.66015625 14661.2236328125 9304.8017578125
v -17920.66015625 7661.2236328125 9304.8017578125
v -17920.66015625 14661.2236328125 13804.8017578125
v -17920.66015625 7661.2236328125 13804.8017578125
v -17920.66015625 7661.2236328125 9304.8017578125
v -36820.66015625 7661.22265625 9304.8017578125
v -17920.66015625 7661.2236328125 13804.8017578125
v -36820.66015625 7661.22265625 13804.8017578125
v -36820.66015625 7661.22265625 9304.8017578125
v -36820.66015625 14661.22265625 9304.8017578125
v -36820.66015625 7661.22265625 13804.8017578125
v -36820.66015625 14661.22265625 13804.8017578125
v -0.00063274049898609519 10404.4912109375 13804.8017578125
v -5987.00341796875 10399.7607421875 13804.8017578125
v -0.00063274049898609519 10404.4912109375 17804.802734375
v -5987.00341796875 10399.7607421875 17804.802734375
v -5987.00341796875 10399.7607421875 13804.8017578125
v -5978.78515625 0.0023013646714389324 13804.8017578125
v -5987.00341796875 10399.7607421875 17804.802734375
v -5978.78515625 0.0023013646714389324 17804.802734375
v -17920.66015625 14661.2236328125 13804.8017578125
v -17920.66015625 7661.2236328125 13804.8017578125
v -36820.66015625 14661.22265625 13804.8017578125
v -36820.66015625 7661.22265625 13804.8017578125
v -54741.3203125 22322.443359375 13804.8017578125
v -54741.3203125 3.2090014428831637E-05 13804.8017578125
v -0.0011748665710911155 22322.4453125 13804.8017578125
v -0.00063274049898609519 10404.4912109375 13804.8017578125
v -5987.00341796875 10399.7607421875 13804.8017578125
v -5978.78515625 0.0023013646714389324 13804.8017578125
v -0.00063274049898609519 10404.4912109375 17804.802734375
v -5987.00341796875 10399.7607421875 17804.802734375
v -5978.78515625 0.0023013646714389324 17804.802734375
v 0 0.0028811248484998941 17804.802734375
v -54741.3203125 22322.443359375 65804.8046875
v -54741.3203125 3.2089999876916409E-05 65804.8046875
v -36820.66015625 0.0009647782426327467 65804.8046875
v -36820.66015625 22322.4453125 65804.8046875
v -36820.66015625 14661.22265625 65804.8046875
v -36820.66015625 7661.22265625 65804.8046875
v -15785.5615234375 22322.4453125 69804.609375
v -15785.5615234375 0.00215492257848382 69804.609375
v -15785.5615234375 0.00215492257848382 65804.8046875
v -15785.5615234375 22322.4453125 65804.8046875
v -36820.66015625 0.0015736422501504421 69804.609375
v -36820.66015625 22322.4453125 69804.609375
v -36820.66015625 22322.4453125 65804.8046875
v -36820.66015625 14661.22265625 65804.8046875
v -36820.66015625 7661.22265625 65804.8046875
v -36820.66015625 0.0009647782426327467 65804.8046875
v -15785.5615234375 0.00215492257848382 69804.609375
v -36820.66015625 0.0015736422501504421 69804.609375
v -15785.5615234375 22322.4453125 69804.609375
v -36820.66015625 22322.4453125 69804.609375
v -15785.5615234375 22322.4453125 65804.8046875
v -0.0011748665710911155 22322.4453125 65804.8046875
v 0 0.0028811248484998941 65804.8046875
v -15785.5615234375 0.00215492257848382 65804.8046875
v -54769.23828125 26849.751953125 -1495.197998046875
v -0.035088960081338882 26894.123046875 -1495.197998046875
v -54769.23828125 26849.751953125 9304.8017578125
v -0.035088960081338882 26894.123046875 9304.8017578125
v -0.035088960081338882 26894.123046875 -1495.197998046875
v 26.748744964599609 -7001.12060546875 -1495.197998046875
v -0.035088960081338882 26894.123046875 9304.8017578125
v 26.748744964599609 -7001.12060546875 9304.8017578125
v 26.748744964599609 -7001.12060546875 -1495.197998046875
v -54734.046875 -6993.025390625 -1495.197998046875
v 26.748744964599609 -7001.12060546875 9304.8017578125
v -54734.046875 -6993.025390625 9304.8017578125
v -54734.046875 -6993.025390625 -1495.197998046875
v -54769.23828125 26849.751953125 -1495.197998046875
v -54734.046875 -6993.025390625 9304.8017578125
v -54769.23828125 26849.751953125 9304.8017578125
v -0.0011748665710911155 22322.4453125 13804.8017578125
v -0.0011748665710911155 22322.4453125 65804.8046875
v 0 0.0028811248484998941 65804.8046875
v -0.00063274049898609519 10404.4912109375 13804.8017578125
v -0.00063274049898609519 10404.4912109375 17804.802734375
v 0 0.0028811248484998941 17804.802734375
v -54741.3203125 22322.443359375 13804.8017578125
v -0.0011748665710911155 22322.4453125 13804.8017578125
v -54741.3203125 22322.443359375 65804.8046875
v -36820.66015625 22322.4453125 65804.8046875
v -36820.66015625 22322.4453125 69804.609375
v -15785.5615234375 22322.4453125 69804.609375
v -15785.5615234375 22322.4453125 65804.8046875
v -0.0011748665710911155 22322.4453125 65804.8046875
v -27370.66015625 22322.4453125 41804.70703125
v -41055.9921875 22322.4453125 41804.70703125
v -27370.66015625 22322.4453125 55804.66015625
v -34213.32421875 22322.4453125 41804.70703125
v -41055.9921875 22322.4453125 55804.66015625
v -34213.32421875 22322.4453125 55804.66015625
v -13685.3310546875 22322.4453125 41804.70703125
v -13685.3310546875 22322.4453125 55804.66015625
v -20527.99609375 22322.4453125 41804.70703125
v -20527.99609375 22322.4453125 55804.66015625
v -54741.3203125 3.2090014428831637E-05 13804.8017578125
v -5978.78515625 0.0023013646714389324 13804.8017578125
v -5978.78515625 0.0023013646714389324 17804.802734375
v 0 0.0028811248484998941 65804.8046875
v -15785.5615234375 0.00215492257848382 65804.8046875
v -15785.5615234375 0.00215492257848382 69804.609375
v -36820.66015625 0.0015736422501504421 69804.609375
v -36820.66015625 0.0009647782426327467 65804.8046875
v -54741.3203125 3.2089999876916409E-05 65804.8046875
v 0 0.0028811248484998941 17804.802734375
v -54741.3203125 3.2090014428831637E-05 13804.8017578125
v -54741.3203125 22322.443359375 13804.8017578125
v -54741.3203125 3.2089999876916409E-05 65804.8046875
v -54741.3203125 22322.443359375 65804.8046875
vt 0.0021585470531135798 0.35082483291625977
vt 0.0024411163758486509 0.00347519526258111
vt 0.21801260113716125 0.35099467635154724
vt 0.21796105802059174 0.003698364133015275
vt 0.99639099836349487 0.84296584129333496
vt 0.78197306394577026 0.84313637018203735
vt 0.99611026048660278 0.49418076872825623
vt 0.78202426433563232 0.49440485239028931
vt 0.91900688409805298 0.72884243726730347
vt 0.91900688409805298 0.60848212242126465
vt 0.8747255802154541 0.72884243726730347
vt 0.8747255802154541 0.60848212242126465
vt 0.72569853067398071 0.59664583206176758
vt 0.72569853067398071 0.7170061469078064
vt 0.752890944480896 0.59664583206176758
vt 0.752890944480896 0.7170061469078064
vt 0.66197919845581055 0.49069121479988098
vt 0.66197919845581055 0.53526908159255981
vt 0.69063639640808105 0.49069121479988098
vt 0.69063639640808105 0.53526908159255981
vt 0.69704133272171021 0.59664583206176758
vt 0.69704133272171021 0.7170061469078064
vt 0.72423368692398071 0.59664583206176758
vt 0.72423368692398071 0.7170061469078064
vt 0.67539072036743164 0.71695142984390259
vt 0.6308128833770752 0.71695142984390259
vt 0.67539072036743164 0.74560868740081787
vt 0.6308128833770752 0.74560868740081787
vt 0.6308128833770752 0.49069121479988098
vt 0.6308128833770752 0.52881807088851929
vt 0.65628594160079956 0.49069121479988098
vt 0.65628594160079956 0.52881807088851929
vt 0.69557648897171021 0.862404465675354
vt 0.6308128833770752 0.862404465675354
vt 0.69557648897171021 0.88787752389907837
vt 0.6308128833770752 0.88787752389907837
vt 0.51187813282012939 0.59192067384719849
vt 0.51187813282012939 0.54779314994812012
vt 0.39166086912155151 0.59192067384719849
vt 0.39166086912155151 0.54779314994812012
vt 0.27767288684844971 0.64021652936935425
vt 0.27767288684844971 0.49949726462364197
vt 0.62586605548858643 0.64021652936935425
vt 0.62586605548858643 0.5650864839553833
vt 0.5877845287322998 0.56505668163299561
vt 0.58783680200576782 0.49949729442596436
vt 0.69704133272171021 0.52881807088851929
vt 0.69707149267196655 0.49069121479988098
vt 0.76329994201660156 0.49074354767799377
vt 0.76329994201660156 0.52881807088851929
vt 0.41746118664741516 0
vt 0.27530580759048462 0
vt 0.27530580759048462 0.11412360519170761
vt 0.41746118664741516 0.11412360519170761
vt 0.36867243051528931 0.11412360519170761
vt 0.32409456372261047 0.11412360519170761
vt 0.41746115684509277 0.19463841617107391
vt 0.27530580759048462 0.19463841617107391
vt 0.27530580759048462 0.16916655004024506
vt 0.41746115684509277 0.16916655004024506
vt 0.77836400270462036 0.59664583206176758
vt 0.77836400270462036 0.73880118131637573
vt 0.75435692071914673 0.73880118131637573
vt 0.75435692071914673 0.69001245498657227
vt 0.75435692071914673 0.64543455839157104
vt 0.75435692071914673 0.59664583206176758
vt 0.13384626805782318 0.67932808399200439
vt 0.0013252184726297855 0.67932808399200439
vt 0.13384626805782318 0.53717279434204102
vt 0.0013252106728032231 0.53717279434204102
vt 0.41746118664741516 0.20692406594753265
vt 0.41746118664741516 0.30745077133178711
vt 0.27530583739280701 0.30745077133178711
vt 0.27530583739280701 0.20692406594753265
vt 0.20541363954544067 0.53575122356414795
vt 0.20541363954544067 0.88453638553619385
vt 0.27272611856460571 0.53575122356414795
vt 0.27272611856460571 0.88453638553619385
vt 0.21585413813591003 0.44584298133850098
vt 0 0.44584298133850098
vt 0.21585413813591003 0.51462030410766602
vt 0 0.51462030410766602
vt 0.13663633167743683 0.53575122356414795
vt 0.13663633167743683 0.884482741355896
vt 0.20394879579544067 0.53575122356414795
vt 0.20394879579544067 0.884482741355896
vt 0.21552005410194397 0.355934739112854
vt 0 0.355934739112854
vt 0.21552005410194397 0.42471206188201904
vt 0 0.42471206188201904
vt 0.59521466493606567 0
vt 0.59521466493606567 0.33115002512931824
vt 0.45305934548377991 0.33115002512931824
vt 0.51931792497634888 0
vt 0.51931792497634888 0.025473080575466156
vt 0.45305934548377991 0.025473080575466156
vt 0.27419096231460571 0.64308857917785645
vt 0.27419096231460571 0.9902312159538269
vt 0.60398077964782715 0.64308857917785645
vt 0.60398077964782715 0.75673258304595947
vt 0.6293480396270752 0.75673258304595947
vt 0.6293480396270752 0.89012688398361206
vt 0.60398077964782715 0.89012688398361206
vt 0.60398077964782715 0.9902312159538269
vt 0.45176947116851807 0.81665986776351929
vt 0.45176947116851807 0.72987419366836548
vt 0.54055875539779663 0.81665986776351929
vt 0.45176947116851807 0.77326703071594238
vt 0.54055875539779663 0.72987419366836548
vt 0.54055875539779663 0.77326703071594238
vt 0.45176947116851807 0.9034455418586731
vt 0.54055875539779663 0.9034455418586731
vt 0.45176947116851807 0.86005270481109619
vt 0.54055875539779663 0.86005270481109619
vt 0.6308128833770752 0.34860751032829285
vt 0.6308128833770752 0.038074519485235214
vt 0.65628594160079956 0.038074519485235214
vt 0.96196287870407104 0
vt 0.96196287870407104 0.10052671283483505
vt 0.9874347448348999 0.10052671283483505
vt 0.9874347448348999 0.23448388278484344
vt 0.96196287870407104 0.23448388278484344
vt 0.96196287870407104 0.34860751032829285
vt 0.65628594160079956 0
vt 0.27419096231460571 0.355934739112854
vt 0.27419096231460571 0.49662524461746216
vt 0.60534101724624634 0.355934739112854
vt 0.60534101724624634 0.49662524461746216
vn 0 0 -1
vn 0 0 -1
vn 0 0 -1
vn 0 0 -1
vn 0 0 1
vn 0 0 1
vn 0 0 1
vn 0 0 1
vn 0 0 1
vn 0 0 1
vn 0 0 1
vn 0 0 1
vn -3.4419731065327142E-08 1 0
vn -3.4419731065327142E-08 1 0
vn -3.4419731065327142E-08 1 0
vn -3.4419731065327142E-08 1 0
vn 1 0 0
vn 1 0 0
vn 1 0 0
vn 1 0 0
vn 5.5175693347564447E-08 -1 0
vn 5.5175693347564447E-08 -1 0
vn 5.5175693347564447E-08 -1 0
vn 5.5175693347564447E-08 -1 0
vn -1 -5.1572712322922598E-08 0
vn -1 -5.1572712322922598E-08 0
vn -1 -5.1572712322922598E-08 0
vn -1 -5.1572712322922598E-08 0
vn 0.00079014105722308159 -0.99999970197677612 0
vn 0.00079014105722308159 -0.99999970197677612 0
vn 0.00079014105722308159 -0.99999970197677612 0
vn 0.00079014105722308159 -0.99999970197677612 0
vn 0.99999970197677612 0.00079020904377102852 0
vn 0.99999970197677612 0.00079020904377102852 0
vn 0.99999970197677612 0.00079020904377102852 0
vn 0.99999970197677612 0.00079020904377102852 0
vn 0 0 -1
vn 0 0 -1
vn 0 0 -1
vn 0 0 -1
vn 0 0 -1
vn 0 0 -1
vn 0 0 -1
vn 0 0 -1
vn 0 0 -1
vn 0 0 -1
vn 0 0 -1
vn 0 0 -1
vn 0 0 -1
vn 0 0 -1
vn 0 0 1
vn 0 0 1
vn 0 0 1
vn 0 0 1
vn 0 0 1
vn 0 0 1
vn 1 2.7920451728391527E-08 0
vn 1 2.7920451728391527E-08 0
vn 1 2.7920451728391527E-08 0
vn 1 2.7920451728391527E-08 0
vn -1 -6.5554971229175862E-08 0
vn -1 -4.8968860966169814E-08 0
vn -1 -4.8968860966169814E-08 0
vn -1 -5.1572715875636277E-08 0
vn -1 -6.5554971229175862E-08 0
vn -1 -6.5554971229175862E-08 0
vn 0 0 1
vn 0 0 1
vn 0 0 1
vn 0 0 1
vn 0 0 1
vn 0 0 1
vn 0 0 1
vn 0 0 1
vn -0.00081017112825065851 0.99999964237213135 0
vn -0.00081017112825065851 0.99999964237213135 0
vn -0.00081017112825065851 0.99999964237213135 0
vn -0.00081017112825065851 0.99999964237213135 0
vn 0.99999970197677612 0.00079019420081749558 0
vn 0.99999970197677612 0.00079019420081749558 0
vn 0.99999970197677612 0.00079019420081749558 0
vn 0.99999970197677612 0.00079019420081749558 0
vn -0.00014783238293603063 -1 0
vn -0.00014783238293603063 -1 0
vn -0.00014783238293603063 -1 0
vn -0.00014783238293603063 -1 0
vn -0.99999946355819702 -0.0010397704318165779 0
vn -0.99999946355819702 -0.0010397704318165779 0
vn -0.99999946355819702 -0.0010397704318165779 0
vn -0.99999946355819702 -0.0010397704318165779 0
vn 1 5.2631627056598518E-08 0
vn 1 5.2631627056598518E-08 0
vn 1 5.2631627056598518E-08 0
vn 1 5.2631627056598518E-08 0
vn 1 5.2631627056598518E-08 0
vn 1 5.2631627056598518E-08 0
vn -3.2707365704709446E-08 1 0
vn -3.2707365704709446E-08 1 0
vn -3.2707365704709446E-08 1 0
vn -3.2707365704709446E-08 1 0
vn -3.2707365704709446E-08 1 0
vn -3.2707365704709446E-08 1 0
vn -3.2707365704709446E-08 1 0
vn -3.2707365704709446E-08 1 0
vn -3.2707365704709446E-08 1 0
vn -3.2707365704709446E-08 1 0
vn -3.2707365704709446E-08 1 0
vn -3.2707365704709446E-08 1 0
vn -3.2707365704709446E-08 1 0
vn -3.2707365704709446E-08 1 0
vn -3.2707365704709446E-08 1 0
vn -3.2707365704709446E-08 1 0
vn -3.2707365704709446E-08 1 0
vn -3.2707365704709446E-08 1 0
vn 5.204541508874172E-08 -1 0
vn 5.204541508874172E-08 -1 0
vn 5.204541508874172E-08 -1 0
vn 5.204541508874172E-08 -1 0
vn 5.204541508874172E-08 -1 0
vn 5.204541508874172E-08 -1 0
vn 5.204541508874172E-08 -1 0
vn 5.204541508874172E-08 -1 0
vn 5.204541508874172E-08 -1 0
vn 5.204541508874172E-08 -1 0
vn -1 -3.4605466936454832E-08 0
vn -1 -3.4605466936454832E-08 0
vn -1 -3.4605466936454832E-08 0
vn -1 -3.4605466936454832E-08 0
f 1/1/1 4/4/4 2/2/2
f 4/4/4 1/1/1 3/3/3
f 12/12/12 10/10/10 7/7/7
f 5/5/5 7/7/7 10/10/10
f 11/11/11 12/12/12 8/8/8
f 7/7/7 8/8/8 12/12/12
f 11/11/11 5/5/5 9/9/9
f 10/10/10 9/9/9 5/5/5
f 8/8/8 6/6/6 11/11/11
f 5/5/5 11/11/11 6/6/6
f 14/14/14 13/13/13 15/15/15 16/16/16
f 18/18/18 17/17/17 19/19/19 20/20/20
f 22/22/22 21/21/21 23/23/23 24/24/24
f 26/26/26 25/25/25 27/27/27 28/28/28
f 30/30/30 29/29/29 31/31/31 32/32/32
f 34/34/34 33/33/33 35/35/35 36/36/36
f 41/41/41 40/40/40 42/42/42
f 46/46/46 40/40/40 38/38/38
f 39/39/39 41/41/41 37/37/37
f 40/40/40 41/41/41 39/39/39
f 46/46/46 42/42/42 40/40/40
f 38/38/38 37/37/37 45/45/45
f 37/37/37 43/43/43 45/45/45
f 44/44/44 45/45/45 43/43/43
f 41/41/41 43/43/43 37/37/37
f 46/46/46 38/38/38 45/45/45
f 47/47/47 49/49/49 48/48/48
f 49/49/49 47/47/47 50/50/50
f 55/55/55 51/51/51 52/52/52
f 54/54/54 51/51/51 55/55/55
f 52/52/52 53/53/53 56/56/56
f 52/52/52 56/56/56 55/55/55
f 59/59/59 60/60/60 57/57/57 58/58/58
f 64/64/64 62/62/62 63/63/63
f 65/65/65 61/61/61 64/64/64
f 64/64/64 61/61/61 62/62/62
f 66/66/66 61/61/61 65/65/65
f 69/69/69 70/70/70 68/68/68
f 68/68/68 67/67/67 69/69/69
f 72/72/72 71/71/71 74/74/74
f 74/74/74 73/73/73 72/72/72
f 76/76/76 75/75/75 77/77/77 78/78/78
f 80/80/80 79/79/79 81/81/81 82/82/82
f 84/84/84 83/83/83 85/85/85 86/86/86
f 88/88/88 87/87/87 89/89/89 90/90/90
f 94/94/94 91/91/91 95/95/95
f 92/92/92 95/95/95 91/91/91
f 96/96/96 95/95/95 93/93/93
f 92/92/92 93/93/93 95/95/95
f 107/107/107 105/105/105 108/108/108 110/110/110
f 110/110/110 108/108/108 106/106/106 109/109/109
f 112/112/112 111/111/111 113/113/113 114/114/114
f 114/114/114 113/113/113 105/105/105 107/107/107
f 108/108/108 97/97/97 106/106/106
f 99/99/99 109/109/109 106/106/106
f 99/99/99 106/106/106 97/97/97
f 105/105/105 97/97/97 108/108/108
f 113/113/113 98/98/98 105/105/105
f 97/97/97 105/105/105 98/98/98
f 98/98/98 113/113/113 111/111/111
f 104/104/104 98/98/98 111/111/111
f 110/110/110 109/109/109 100/100/100
f 107/107/107 110/110/110 100/100/100
f 107/107/107 100/100/100 101/101/101
f 100/100/100 109/109/109 99/99/99
f 101/101/101 102/102/102 114/114/114 107/107/107
f 103/103/103 112/112/112 114/114/114
f 114/114/114 102/102/102 103/103/103
f 112/112/112 103/103/103 104/104/104
f 111/111/111 112/112/112 104/104/104
f 117/117/117 124/124/124 118/118/118
f 115/115/115 116/116/116 117/117/117
f 117/117/117 122/122/122 115/115/115
f 119/119/119 117/117/117 118/118/118
f 120/120/120 121/121/121 122/122/122 119/119/119
f 115/115/115 122/122/122 123/123/123
f 117/117/117 119/119/119 122/122/122
f 126/126/126 125/125/125 127/127/127 128/128/128
